<mxfile host="app.diagrams.net" modified="2024-06-20T08:20:33.525Z" agent="Mozilla/5.0 (Macintosh; Intel Mac OS X 10_15_7) AppleWebKit/537.36 (KHTML, like Gecko) Chrome/126.0.0.0 Safari/537.36" version="24.5.5" etag="O8qx91OfL0AKy3wtijG2" type="github">
  <diagram name="PÃ¡gina-1" id="2MW0QqF5RGw3lHCcfFWc">
    <mxGraphModel>
      <root>
        <mxCell id="0" />
        <mxCell id="1" parent="0" />
      </root>
    </mxGraphModel>
  </diagram>
</mxfile>
